<svg width="398" height="407" viewBox="0 0 398 407" fill="none" xmlns="http://www.w3.org/2000/svg">
<g clip-path="url(#clip0_126_2)">
<path d="M363.096 389.759C362.671 389.78 362.249 389.664 361.89 389.429C361.53 389.193 361.249 388.849 361.085 388.443C360.92 388.036 360.881 387.588 360.971 387.157C361.062 386.727 361.278 386.336 361.591 386.037L361.733 385.452C361.714 385.405 361.696 385.358 361.677 385.311C361.248 384.265 360.53 383.372 359.613 382.746C358.695 382.12 357.619 381.788 356.52 381.792C355.421 381.797 354.348 382.137 353.435 382.77C352.522 383.403 351.81 384.301 351.389 385.351C349.707 389.542 347.564 393.74 347.037 398.171C346.805 400.13 346.903 402.115 347.327 404.039C343.375 395.124 341.323 385.434 341.309 375.627C341.308 373.166 341.441 370.707 341.705 368.261C341.924 366.256 342.228 364.266 342.616 362.289C344.734 351.565 349.282 341.514 355.885 332.961C359.082 331.157 361.666 328.384 363.292 325.014C363.88 323.803 364.296 322.51 364.527 321.175C364.166 321.224 363.167 315.545 363.439 315.197C362.937 314.409 362.038 314.017 361.489 313.247C358.76 309.42 354.999 310.089 353.036 315.289C348.843 317.478 348.802 321.107 351.375 324.598C353.012 326.819 353.237 329.825 354.674 332.203C354.526 332.398 354.372 332.588 354.224 332.783C351.523 336.375 349.169 340.233 347.195 344.3C347.675 339.743 347.102 335.134 345.524 330.852C343.924 326.86 340.925 323.499 338.285 320.049C335.113 315.904 328.608 317.713 328.05 322.967C328.044 323.017 328.039 323.068 328.034 323.119C328.426 323.348 328.81 323.591 329.186 323.848C329.658 324.174 330.023 324.64 330.235 325.184C330.446 325.729 330.494 326.327 330.371 326.9C330.248 327.473 329.961 327.995 329.547 328.396C329.133 328.797 328.611 329.06 328.05 329.149L327.992 329.159C328.132 330.62 328.379 332.069 328.731 333.492C325.344 347.041 332.657 351.976 343.1 352.197C343.331 352.32 343.555 352.442 343.786 352.558C341.803 358.369 340.559 364.423 340.086 370.566C339.818 374.19 339.834 377.831 340.133 381.453L340.115 381.324C339.359 377.297 337.281 373.663 334.234 371.037C329.708 367.192 323.314 365.776 318.431 362.685C317.912 362.341 317.309 362.157 316.692 362.155C316.076 362.154 315.471 362.335 314.951 362.677C314.43 363.018 314.015 363.507 313.754 364.085C313.494 364.663 313.398 365.306 313.479 365.938C313.486 365.983 313.492 366.028 313.499 366.073C314.227 366.38 314.936 366.733 315.621 367.131C316.013 367.359 316.397 367.602 316.773 367.859C317.245 368.185 317.611 368.651 317.822 369.196C318.034 369.741 318.081 370.339 317.958 370.912C317.836 371.485 317.548 372.006 317.134 372.407C316.72 372.809 316.198 373.071 315.637 373.161L315.58 373.17C315.538 373.176 315.503 373.182 315.462 373.188C316.705 376.259 318.451 379.086 320.622 381.544C322.74 393.372 331.838 394.494 341.569 391.05H341.575C342.643 395.848 344.19 400.519 346.192 404.986H362.683C362.742 404.797 362.795 404.601 362.848 404.412C361.322 404.511 359.789 404.417 358.285 404.131C359.509 402.578 360.732 401.013 361.956 399.461C361.983 399.432 362.009 399.401 362.033 399.369C362.653 398.574 363.28 397.786 363.9 396.991L363.901 396.99C363.934 394.554 363.663 392.124 363.097 389.76L363.096 389.759Z" fill="#F2F2F2"/>
<path d="M335.618 238.106C339.988 221.695 348.141 207.718 361.304 196.965C361.825 196.133 362.643 195.548 363.58 195.34C364.517 195.131 365.496 195.315 366.302 195.852L396.347 215.914C397.151 216.452 397.716 217.299 397.918 218.268C398.12 219.237 397.942 220.249 397.423 221.082L371.736 262.224C371.215 263.056 370.397 263.64 369.46 263.849C368.523 264.058 367.544 263.873 366.738 263.337L336.694 243.275C335.889 242.736 335.324 241.89 335.122 240.921C334.92 239.952 335.099 238.94 335.618 238.106Z" fill="#F2F2F2"/>
<path d="M345.681 227.218C346.808 218.547 353.744 209.683 362.195 200.769C362.683 199.989 363.449 199.442 364.327 199.247C365.204 199.051 366.121 199.224 366.876 199.726L392.696 216.968C393.45 217.472 393.979 218.265 394.168 219.172C394.357 220.08 394.19 221.028 393.704 221.808L370.847 258.419C370.359 259.198 369.592 259.745 368.715 259.941C367.837 260.136 366.921 259.964 366.166 259.461L350.171 248.78C346.814 246.533 344.456 243.001 343.615 238.959C342.773 234.917 343.516 230.694 345.681 227.218Z" fill="white"/>
<path d="M347.985 262.573C344.173 246.013 344.808 229.703 351.337 213.724C351.406 212.735 351.851 211.815 352.575 211.166C353.299 210.516 354.243 210.19 355.199 210.259L390.872 212.877C391.828 212.948 392.718 213.409 393.346 214.157C393.974 214.906 394.289 215.882 394.222 216.871L390.871 265.72C390.802 266.708 390.356 267.628 389.632 268.278C388.908 268.927 387.965 269.253 387.009 269.184L351.335 266.567C350.379 266.495 349.49 266.035 348.862 265.286C348.234 264.537 347.918 263.562 347.985 262.573Z" fill="#F2F2F2"/>
<path d="M351.734 248.019C348.683 239.859 350.634 228.636 353.889 216.615C353.953 215.689 354.37 214.827 355.048 214.219C355.726 213.61 356.61 213.305 357.505 213.37L388.164 215.62C389.059 215.686 389.892 216.118 390.48 216.819C391.069 217.52 391.364 218.434 391.301 219.36L388.319 262.829C388.254 263.755 387.837 264.617 387.159 265.225C386.481 265.833 385.597 266.138 384.702 266.074L365.71 264.68C361.722 264.383 358.011 262.462 355.391 259.338C352.771 256.215 351.455 252.144 351.734 248.019Z" fill="white"/>
<path d="M200.375 20.4756H13.419C9.86225 20.4786 6.4519 21.9407 3.9362 24.5409C1.42051 27.1411 0.00492196 30.6671 0 34.3453V208.563C0.00462516 212.242 1.41989 215.769 3.93544 218.37C6.45099 220.972 9.86148 222.435 13.419 222.44H200.375C203.932 222.435 207.342 220.971 209.856 218.369C212.37 215.768 213.784 212.241 213.787 208.563V34.3453C213.784 30.6679 212.37 27.142 209.855 24.5417C207.341 21.9413 203.931 20.4789 200.375 20.4756Z" fill="white"/>
<path d="M114.952 60.4607H94.979C93.998 60.4607 93.0572 60.0577 92.3636 59.3404C91.6699 58.623 91.2803 57.6501 91.2803 56.6356C91.2803 55.6212 91.6699 54.6482 92.3636 53.9309C93.0572 53.2135 93.998 52.8105 94.979 52.8105H114.952C115.933 52.8105 116.874 53.2135 117.568 53.9309C118.261 54.6482 118.651 55.6212 118.651 56.6356C118.651 57.6501 118.261 58.623 117.568 59.3404C116.874 60.0577 115.933 60.4607 114.952 60.4607Z" fill="#9E4151"/>
<path d="M379.781 236.21H359.808C358.827 236.21 357.886 235.807 357.193 235.089C356.499 234.372 356.109 233.399 356.109 232.385C356.109 231.37 356.499 230.397 357.193 229.68C357.886 228.963 358.827 228.56 359.808 228.56H379.781C380.762 228.56 381.703 228.963 382.397 229.68C383.09 230.397 383.48 231.37 383.48 232.385C383.48 233.399 383.09 234.372 382.397 235.089C381.703 235.807 380.762 236.21 379.781 236.21Z" fill="#9E4151"/>
<path d="M166.735 140.583H43.1968C42.2158 140.583 41.275 140.18 40.5814 139.462C39.8877 138.745 39.498 137.772 39.498 136.758C39.498 135.743 39.8877 134.77 40.5814 134.053C41.275 133.336 42.2158 132.933 43.1968 132.933H166.735C167.715 132.933 168.656 133.336 169.35 134.053C170.044 134.77 170.433 135.743 170.433 136.758C170.433 137.772 170.044 138.745 169.35 139.462C168.656 140.18 167.715 140.583 166.735 140.583Z" fill="#E6E6E6"/>
<path d="M166.735 165.829H43.1968C42.2158 165.829 41.275 165.426 40.5814 164.709C39.8877 163.991 39.498 163.018 39.498 162.004C39.498 160.989 39.8877 160.016 40.5814 159.299C41.275 158.582 42.2158 158.179 43.1968 158.179H166.735C167.715 158.179 168.656 158.582 169.35 159.299C170.044 160.016 170.433 160.989 170.433 162.004C170.433 163.018 170.044 163.991 169.35 164.709C168.656 165.426 167.715 165.829 166.735 165.829Z" fill="#E6E6E6"/>
<path d="M166.735 191.074H43.1968C42.2158 191.074 41.275 190.671 40.5814 189.954C39.8877 189.236 39.498 188.263 39.498 187.249C39.498 186.234 39.8877 185.261 40.5814 184.544C41.275 183.827 42.2158 183.424 43.1968 183.424H166.735C167.715 183.424 168.656 183.827 169.35 184.544C170.044 185.261 170.433 186.234 170.433 187.249C170.433 188.263 170.044 189.236 169.35 189.954C168.656 190.671 167.715 191.074 166.735 191.074Z" fill="#E6E6E6"/>
<path d="M141.484 71.9375H68.4493C64.8925 71.9406 61.4822 73.4026 58.9665 76.0028C56.4508 78.603 55.0352 82.129 55.0303 85.8073V108.551C55.0349 112.23 56.4502 115.757 58.9657 118.359C61.4813 120.96 64.8917 122.424 68.4493 122.429H141.484C145.041 122.424 148.451 120.96 150.965 118.358C153.479 115.756 154.893 112.229 154.896 108.551V85.8073C154.893 82.1298 153.479 78.6039 150.964 76.0036C148.45 73.4032 145.04 71.9409 141.484 71.9375ZM153.417 108.551C153.417 111.826 152.159 114.967 149.92 117.282C147.681 119.598 144.644 120.899 141.477 120.899H89.0492C80.4192 120.899 72.1426 117.353 66.0403 111.042C59.938 104.732 56.5098 96.1724 56.5098 87.2476V85.8073C56.5148 82.5348 57.7746 79.3981 60.0128 77.0848C62.251 74.7716 65.2849 73.4707 68.4493 73.4675H141.484C144.648 73.471 147.681 74.7722 149.918 77.0856C152.155 79.399 153.413 82.5356 153.417 85.8073V108.551Z" fill="#E6E6E6"/>
<path d="M105.784 105.392C112.729 105.392 118.359 99.5698 118.359 92.3871C118.359 85.2045 112.729 79.3818 105.784 79.3818C98.8383 79.3818 93.208 85.2045 93.208 92.3871C93.208 99.5698 98.8383 105.392 105.784 105.392Z" fill="#E6E6E6"/>
<path d="M134.715 122.429L78.4131 122.223L96.167 117.633L98.3789 110.082L115.4 109.982L120.497 117.449L133.369 120.899L134.538 121.213L134.715 122.429Z" fill="#E6E6E6"/>
<path d="M98.6366 100.691C101.335 98.5094 97.6463 88.9132 102.103 90.9615C102.103 90.9615 107.549 87.3769 108.644 89.7325C109.911 92.46 114.417 91.2226 117.185 90.2599C116.968 89.737 116.813 89.1883 116.725 88.6264C117.236 89.0427 117.777 89.4176 118.344 89.7478C118.724 89.5378 119.061 89.2524 119.334 88.908C119.604 88.5882 119.773 88.1906 119.818 87.7686C119.864 87.3466 119.783 86.9205 119.587 86.5474C119.126 85.8151 118.176 85.5898 117.616 84.9394C117.551 84.848 117.509 84.7417 117.493 84.6296C117.477 84.5176 117.487 84.4032 117.523 84.2962C117.59 84.0345 117.6 83.7609 117.553 83.4947C117.505 83.2286 117.402 82.9765 117.25 82.7564C117.097 82.5364 116.9 82.3537 116.672 82.2215C116.444 82.0893 116.19 82.0108 115.929 81.9916C115.824 81.9949 115.72 81.9715 115.626 81.9233C115.156 81.626 114.722 81.2719 114.333 80.8684C114.982 80.8992 114.189 76.7929 107.757 77.5707C106.138 77.5092 105.293 79.356 103.698 79.6478C99.8335 77.3639 96.3836 80.6585 94.705 83.8077C93.0264 86.957 91.2092 97.1063 98.6366 100.691Z" fill="#E6E6E6"/>
<path d="M200.375 20.4756H13.419C9.86225 20.4786 6.4519 21.9407 3.9362 24.5409C1.42051 27.1411 0.00492196 30.6671 0 34.3453V208.563C0.00462516 212.242 1.41989 215.769 3.93544 218.37C6.45099 220.972 9.86148 222.435 13.419 222.44H200.375C203.932 222.435 207.342 220.971 209.856 218.369C212.37 215.768 213.784 212.241 213.787 208.563V34.3453C213.784 30.6679 212.37 27.142 209.855 24.5417C207.341 21.9413 203.931 20.4789 200.375 20.4756ZM212.307 208.563C212.307 211.837 211.049 214.978 208.81 217.294C206.571 219.609 203.534 220.91 200.368 220.91H97.7951C85.1468 220.91 72.6223 218.334 60.9367 213.328C49.2512 208.322 38.6334 200.985 29.6897 191.736C20.746 182.487 13.6514 171.507 8.81107 159.422C3.97075 147.337 1.47949 134.385 1.47949 121.304V34.3453C1.48453 31.0729 2.74429 27.9361 4.9825 25.6229C7.22072 23.3096 10.2547 22.0088 13.419 22.0056H200.375C203.539 22.0091 206.572 23.3103 208.809 25.6237C211.046 27.9371 212.304 31.0737 212.307 34.3453V208.563Z" fill="#E6E6E6"/>
<path d="M395.696 406.765L162.412 407C162.179 406.999 161.956 406.902 161.792 406.732C161.627 406.561 161.535 406.33 161.535 406.089C161.535 405.849 161.627 405.618 161.792 405.447C161.956 405.276 162.179 405.18 162.412 405.178L395.696 404.943C395.929 404.945 396.152 405.041 396.316 405.212C396.481 405.382 396.573 405.613 396.573 405.854C396.573 406.095 396.481 406.326 396.316 406.497C396.152 406.667 395.929 406.764 395.696 406.765Z" fill="#CACACA"/>
</g>
<path d="M218.708 379L209.899 378.93L206 346L219 346.104L218.708 379Z" fill="#FFB6B6"/>
<path d="M192 396.84C191.993 397.872 192.372 398.864 193.053 399.6C193.735 400.336 194.663 400.755 195.636 400.765L211.943 400.909L214.798 394.77L215.847 400.941L222 401L220.446 378.99L218.305 378.839L209.573 378.2L206.756 378L206.707 384.227L193.607 393.655C193.116 394.008 192.714 394.483 192.434 395.038C192.154 395.592 192.005 396.211 192 396.84Z" fill="#2F2E41"/>
<path d="M303.708 379L294.899 378.93L291 346L304 346.104L303.708 379Z" fill="#FFB6B6"/>
<path d="M277 396.84C276.993 397.872 277.372 398.864 278.053 399.6C278.735 400.336 279.663 400.755 280.636 400.765L296.943 400.909L299.798 394.77L300.847 400.941L307 401L305.446 378.99L303.305 378.839L294.573 378.2L291.756 378L291.707 384.227L278.607 393.655C278.116 394.008 277.714 394.483 277.434 395.038C277.154 395.592 277.005 396.211 277 396.84Z" fill="#2F2E41"/>
<path d="M208.296 114.977L246.021 85.8185C247.615 84.5784 248.66 82.7583 248.931 80.751C249.201 78.7438 248.675 76.7103 247.465 75.0893C246.839 74.2508 246.05 73.549 245.146 73.0267C244.241 72.5045 243.24 72.1727 242.204 72.0517C241.168 71.9306 240.118 72.0228 239.118 72.3226C238.118 72.6224 237.19 73.1236 236.389 73.7956L198.127 105.291L174.075 123.444C172.885 122.749 171.51 122.439 170.138 122.556C168.767 122.673 167.464 123.211 166.407 124.097C165.35 124.984 164.591 126.175 164.232 127.51C163.873 128.845 163.932 130.259 164.401 131.559C164.869 132.859 165.725 133.983 166.852 134.777C167.979 135.572 169.322 135.999 170.699 136C172.076 136.001 173.42 135.577 174.548 134.784C175.676 133.992 176.534 132.87 177.005 131.57L208.296 114.977Z" fill="#FFB6B6"/>
<path d="M238.678 122.062L237 159.171L294 166C289.515 151.089 282.16 130.377 285.53 120L238.678 122.062Z" fill="#A0616A"/>
<path d="M271.072 54H253.783L246.358 66.7143L242.821 66.5188C235.926 69.1763 233.177 71.9267 229.372 79.2544L216 90.4917L226.306 102.868C233.425 101.701 235.992 96.1714 233.731 86.0156C233.731 86.0156 225.936 99.6115 237.165 106.3C237.165 106.3 235.162 118.903 237.165 118.767C239.168 118.632 243.781 116.067 239.168 118.632C234.555 121.197 235.345 121.307 235.496 122.138C237.987 135.873 240.048 146.187 240.048 146.187L288.832 151C288.832 151 286.021 121.476 286.174 119.797C286.327 118.119 285.301 122.222 286.327 118.119C287.352 114.015 288.89 115.554 287.352 114.015C285.814 112.476 297.923 111.151 293.197 103.756L309 99.63L300.167 78.6203C300.167 71.5265 288.782 65.7758 281.693 65.7758H280.785L271.072 54Z" fill="#E6E6E6"/>
<path d="M289.109 145.491C269.976 152.066 252.752 150.622 238.188 138C238.188 138 234.089 153.138 229.939 151.074C225.79 149.01 227.84 154.786 226.701 156.904C225.49 159.152 226.895 162.945 222.899 164.235C218.902 165.524 220.403 169.314 219.109 172.103C210.054 191.621 199.714 219.248 192.728 254.289C185.549 290.297 203.06 350.624 203.06 350.624L219.591 349.248L223.723 270.804L242.625 237.647C242.625 237.647 251.911 232.245 246.083 229.505C240.254 226.765 244.159 223.37 248.406 224.035C252.652 224.701 257.474 202.682 257.474 202.682C251.419 217.883 289.158 352 289.158 352L305 350.624L296.046 163.46L289.109 145.491Z" fill="#2F2E41"/>
<path d="M281.047 21.7779C282.939 26.4777 288.277 35.7202 289 40.7621L288.675 40.4429C288.054 41.5006 287.348 42.5065 286.565 43.4509C285.161 41.9806 283.466 40.818 281.587 40.0371C282.613 42.1368 283.207 44.4202 283.335 46.7526C279.859 49.7706 270.984 47.9497 266.55 49.5582C259.414 52.1402 251.838 53.0594 244.358 53.8227C241.703 54.0953 238.731 54.2608 236.87 52.6961C235.009 51.1314 236.117 48.2338 235.116 46.0422C227.986 30.4312 234.566 24.7989 240.157 17.7203C241.388 16.1625 241.382 13.8379 242.88 12.3516C244.957 10.2915 248.141 9.65782 251.077 9.15023C250.314 9.19029 249.554 9.03391 248.869 8.69612C248.185 8.35834 247.599 7.85052 247.169 7.22157C246.791 6.5879 246.596 5.86247 246.605 5.12532C246.615 4.38816 246.828 3.66792 247.222 3.04401C248.272 1.30808 250.453 0.298615 252.558 0.0464337C254.632 -0.0940006 256.715 0.084573 258.734 0.575889C260.042 0.747457 261.309 1.15121 262.474 1.76803C263.024 2.06058 263.471 2.51355 263.756 3.06637C264.04 3.61919 264.149 4.24551 264.067 4.86162C263.892 5.43057 263.59 5.95269 263.184 6.38903C262.778 6.82538 262.279 7.16469 261.723 7.38168C260.875 7.73898 259.984 7.98232 259.072 8.10528C263.26 7.56331 267.514 8.30588 271.268 10.2342C275.973 12.7371 279.148 17.0806 281.047 21.7779Z" fill="#2F2E41"/>
<path d="M256 48C265.389 48 273 40.6127 273 31.5C273 22.3873 265.389 15 256 15C246.611 15 239 22.3873 239 31.5C239 40.6127 246.611 48 256 48Z" fill="#FFB6B6"/>
<path d="M271.675 22.5249C270.716 25.5124 267.974 26.4751 265.44 27.0754C264.641 27.2673 263.837 27.4461 263.026 27.6052C262.726 27.2196 262.408 26.8417 262.075 26.4845C260.694 24.99 259.026 23.8083 257.177 23.0146C257.977 24.7005 258.508 26.5077 258.751 28.3673C257.219 28.5963 255.679 28.7834 254.13 28.9287C252.819 29.2161 251.452 28.9738 250.31 28.2518C249.168 27.5299 248.339 26.3835 247.994 25.0496C246.583 27.4254 244.916 29.6627 242.636 30.6065C241.332 31.0892 239.913 31.1289 238.585 30.7197C237.258 30.3106 236.093 29.4742 235.261 28.3331C233.895 26.6167 233.135 24.3108 232.588 22.0854C231.94 19.4398 231.581 16.3923 232.851 14.7138C233.869 13.3553 235.625 13.3309 237.245 13.4514C240.82 13.734 244.358 14.3948 247.802 15.4234L248.094 16.0988C247.502 12.4352 248.786 8.91036 251.161 7.65677C252.763 6.81861 254.691 6.95916 256.564 7.12919C258.97 7.23979 261.347 7.71344 263.619 8.53501C266.226 9.56818 268.46 11.406 270.014 13.797C271.677 16.3978 272.503 19.9449 271.675 22.5249Z" fill="#2F2E41"/>
<path d="M248 6.71855C248.176 6.66837 247.721 6.73283 247.879 6.73692C247.8 6.73252 247.722 6.72197 247.646 6.70536C247.633 6.70284 247.455 6.6481 247.573 6.6883C247.309 6.61179 247.073 6.46285 246.894 6.25944C246.476 5.75901 246.148 5.19398 245.923 4.58807C245.64 3.78737 245.186 3.05361 244.589 2.43498C244.419 2.27037 244.212 2.14674 243.984 2.0741C243.756 2.00146 243.514 1.98187 243.277 2.01691C243.039 2.05196 242.814 2.14067 242.619 2.27582C242.423 2.41097 242.264 2.58875 242.153 2.79475C241.806 3.53693 242.123 4.45139 242.37 5.18033C242.626 5.93772 243.005 6.6503 243.495 7.29063C244.316 8.33773 245.433 9.13122 246.712 9.5744C248.192 10.0945 249.806 10.1391 251.314 9.70165C251.513 9.62166 251.684 9.48732 251.806 9.31501C251.928 9.14269 251.995 8.93983 252 8.73114C252.004 8.52244 251.946 8.31693 251.832 8.13963C251.719 7.96234 251.554 7.82091 251.358 7.7326L248.843 6.73633C248.711 6.67995 248.568 6.64936 248.423 6.64631C248.279 6.64326 248.135 6.6678 248 6.71853C247.865 6.76927 247.742 6.84519 247.638 6.94199C247.533 7.03879 247.449 7.15456 247.391 7.28268C247.333 7.4108 247.301 7.54877 247.298 7.68872C247.295 7.82866 247.32 7.96783 247.373 8.09829C247.425 8.22875 247.504 8.34794 247.604 8.44905C247.704 8.55017 247.823 8.63123 247.956 8.6876L250.471 9.68384L250.515 7.7148C250.202 7.80247 249.879 7.8559 249.553 7.87411C249.205 7.90783 248.854 7.8935 248.51 7.83155C248.18 7.78978 247.857 7.71343 247.545 7.60385C247.345 7.53319 247.149 7.45276 246.957 7.36287C246.888 7.33018 246.819 7.29625 246.75 7.26107C246.755 7.26361 246.463 7.0987 246.591 7.17618C246.266 6.97502 245.96 6.74495 245.679 6.48896C245.58 6.39819 245.489 6.29971 245.406 6.19452C245.263 6.02416 245.13 5.84586 245.008 5.66052C244.76 5.26804 244.564 4.84721 244.424 4.40775C244.36 4.22306 244.306 4.03527 244.262 3.84515C244.25 3.74079 244.23 3.63735 244.203 3.53556C244.11 3.29302 244.221 3.67718 244.114 3.78227L243.65 4.11288C243.563 4.13798 243.471 4.1438 243.382 4.1299C243.292 4.116 243.207 4.08274 243.132 4.03259C243.077 3.95779 243.089 3.97019 243.168 4.06981C243.26 4.18704 243.344 4.30979 243.42 4.43732C243.586 4.73756 243.736 5.04577 243.87 5.36075C244.147 6.03066 244.497 6.67006 244.914 7.26806C245.322 7.87292 245.918 8.33751 246.616 8.5956C247.313 8.8537 248.077 8.89212 248.799 8.70541C249.069 8.6011 249.287 8.39798 249.404 8.13986C249.522 7.88174 249.53 7.58932 249.426 7.32568C249.315 7.06587 249.105 6.85754 248.839 6.74436C248.574 6.63118 248.273 6.62194 248 6.71855Z" fill="#2F2E41"/>
<path d="M222 188C249.062 188 271 165.838 271 138.5C271 111.162 249.062 89 222 89C194.938 89 173 111.162 173 138.5C173 165.838 194.938 188 222 188Z" fill="white"/>
<path d="M222 189C212.111 189 202.444 186.068 194.222 180.573C185.999 175.079 179.59 167.271 175.806 158.134C172.022 148.998 171.031 138.945 172.961 129.246C174.89 119.547 179.652 110.637 186.645 103.645C193.637 96.6522 202.546 91.8901 212.245 89.9608C221.944 88.0315 231.998 89.0216 241.134 92.8059C250.27 96.5903 258.079 102.999 263.573 111.221C269.067 119.444 272 129.111 272 139C271.985 152.256 266.712 164.965 257.339 174.339C247.965 183.712 235.256 188.985 222 189ZM222 90.3758C212.383 90.3758 202.982 93.2276 194.986 98.5705C186.99 103.913 180.757 111.507 177.077 120.392C173.397 129.277 172.434 139.054 174.31 148.486C176.186 157.918 180.817 166.582 187.618 173.383C194.418 180.183 203.082 184.814 212.514 186.69C221.946 188.566 231.723 187.603 240.608 183.923C249.493 180.242 257.087 174.01 262.43 166.014C267.773 158.018 270.624 148.617 270.624 139C270.61 126.108 265.482 113.749 256.366 104.633C247.251 95.5178 234.891 90.3903 222 90.3758Z" fill="#3F3D56"/>
<path d="M215.185 165C214.322 165 213.472 164.799 212.7 164.413C211.928 164.027 211.257 163.467 210.74 162.777L197.111 144.605C196.673 144.021 196.355 143.357 196.174 142.65C195.993 141.943 195.953 141.207 196.056 140.485C196.159 139.763 196.404 139.068 196.775 138.44C197.147 137.812 197.639 137.263 198.223 136.826C198.807 136.388 199.471 136.069 200.178 135.888C200.885 135.707 201.62 135.667 202.343 135.77C203.065 135.873 203.76 136.118 204.388 136.49C205.016 136.862 205.564 137.353 206.002 137.937L214.919 149.825L237.819 115.475C238.224 114.867 238.744 114.346 239.351 113.94C239.957 113.534 240.638 113.251 241.353 113.108C242.069 112.965 242.806 112.964 243.521 113.106C244.237 113.247 244.918 113.529 245.525 113.933C246.133 114.338 246.654 114.859 247.06 115.465C247.466 116.071 247.749 116.752 247.892 117.467C248.035 118.183 248.036 118.919 247.894 119.635C247.753 120.351 247.472 121.032 247.067 121.639L219.809 162.525C219.316 163.265 218.653 163.875 217.875 164.306C217.098 164.736 216.228 164.973 215.34 164.998C215.288 164.999 215.237 165 215.185 165Z" fill="#9E4151"/>
<path d="M168 401C168 401.131 168.021 401.262 168.062 401.383C168.103 401.505 168.163 401.615 168.239 401.708C168.315 401.801 168.406 401.875 168.505 401.925C168.605 401.975 168.712 402 168.819 402H343.181C343.398 402 343.606 401.895 343.76 401.707C343.914 401.52 344 401.265 344 401C344 400.735 343.914 400.48 343.76 400.293C343.606 400.105 343.398 400 343.181 400H168.819C168.712 400 168.605 400.025 168.505 400.075C168.406 400.125 168.315 400.199 168.239 400.292C168.163 400.385 168.103 400.495 168.062 400.617C168.021 400.738 168 400.869 168 401Z" fill="#CCCCCC"/>
<path d="M322.146 140.473L305.922 96.0131C305.229 94.1315 303.818 92.5956 301.993 91.7369C300.168 90.8781 298.076 90.7653 296.169 91.4229C295.182 91.7631 294.275 92.2991 293.504 92.9981C292.733 93.6972 292.113 94.5448 291.683 95.4892C291.252 96.4335 291.021 97.4549 291.001 98.4911C290.982 99.5272 291.176 100.556 291.571 101.516L309.851 147.186L319.78 175.402C318.758 176.32 318.045 177.527 317.739 178.86C317.432 180.194 317.547 181.588 318.068 182.855C318.589 184.121 319.49 185.198 320.649 185.938C321.808 186.679 323.168 187.048 324.546 186.995C325.924 186.942 327.252 186.469 328.349 185.642C329.447 184.814 330.261 183.671 330.681 182.369C331.101 181.066 331.106 179.667 330.697 178.361C330.287 177.055 329.482 175.906 328.391 175.07L322.146 140.473Z" fill="#FFB6B6"/>
<path d="M298.015 76L311 99.2596C311 99.2596 281.075 109.516 281.002 107.808C280.93 106.101 282.489 82.4047 282.489 82.4047L298.015 76Z" fill="#E6E6E6"/>
<defs>
<clipPath id="clip0_126_2">
<rect width="398" height="398" fill="white" transform="translate(0 9)"/>
</clipPath>
</defs>
</svg>
