<svg width="500" height="370" viewBox="0 0 500 370" fill="none" xmlns="http://www.w3.org/2000/svg">
<path d="M401.244 48.2818L402.848 34.1342C403.129 31.6439 403.854 29.239 404.98 27.0568C406.107 24.8747 407.613 22.9581 409.412 21.4165C411.212 19.8749 413.27 18.7386 415.469 18.0724C417.668 17.4062 419.964 17.2233 422.228 17.5339C424.491 17.8446 426.676 18.6429 428.659 19.8831C430.642 21.1233 432.383 22.7812 433.783 24.762C435.183 26.7428 436.215 29.0078 436.82 31.4276C437.424 33.8473 437.59 36.3744 437.306 38.8645L435.702 53.012C435.625 53.6871 435.308 54.3009 434.82 54.7187C434.332 55.1366 433.713 55.3244 433.099 55.2409L403.269 51.146C402.656 51.061 402.098 50.7117 401.718 50.1748C401.339 49.6378 401.168 48.957 401.244 48.2818Z" fill="#2F2E41"/>
<path d="M415.533 52.5025C422.563 52.5025 428.262 46.2314 428.262 38.4956C428.262 30.7599 422.563 24.4888 415.533 24.4888C408.502 24.4888 402.803 30.7599 402.803 38.4956C402.803 46.2314 408.502 52.5025 415.533 52.5025Z" fill="#FFB8B8"/>
<path d="M398.643 34.7064C399.098 30.731 400.968 27.1165 403.842 24.6559C406.715 22.1952 410.359 21.0894 413.973 21.5809L416.545 21.9339C420.157 22.4344 423.442 24.4914 425.679 27.6536C427.915 30.8157 428.92 34.8248 428.473 38.8012L428.441 39.0842L423.007 38.3381L421.801 32.3727L420.782 38.0328L417.974 37.6473L417.365 34.6374L416.852 37.4932L398.611 34.9893L398.643 34.7064Z" fill="#2F2E41"/>
<path d="M353.271 88.4606C353.661 89.3011 354.212 90.0376 354.888 90.618C355.564 91.1985 356.347 91.6089 357.182 91.8203C358.018 92.0317 358.885 92.0389 359.724 91.8416C360.562 91.6442 361.351 91.247 362.034 90.6779L373.596 98.1304L379.426 91.5039L362.964 81.2317C362.019 80.0314 360.706 79.2541 359.275 79.0472C357.844 78.8404 356.394 79.2182 355.2 80.1093C354.005 81.0003 353.149 82.3427 352.793 83.8819C352.438 85.4211 352.608 87.0502 353.271 88.4606Z" fill="#FFB8B8"/>
<path d="M391.166 101.852C382.638 101.852 367.63 97.6512 366.799 97.4165L366.537 97.3426L368.899 84.184L391.821 89.1657L404.274 69.8703L418.571 68.271L418.172 68.8489C417.986 69.1181 399.557 95.8129 396.688 100.291C395.965 101.421 393.897 101.852 391.166 101.852Z" fill="#3F3D56"/>
<path d="M393.453 151.239L393.111 151.06C393.039 151.022 385.793 147.144 382.04 139.573C378.305 132.038 395.79 100.075 397.013 97.8569L397.031 87.7062L403.321 69.02L411.343 64.0312L404.455 81.7135L393.453 151.239Z" fill="#3F3D56"/>
<path d="M385.416 260.339L377.75 260.338L374.103 227.8L385.417 227.801L385.416 260.339Z" fill="#FFB8B8"/>
<path d="M387.371 268.516L362.65 268.515V268.171C362.651 265.363 363.664 262.67 365.469 260.685C367.273 258.699 369.72 257.584 372.272 257.584H372.273L387.371 257.584L387.371 268.516Z" fill="#2F2E41"/>
<path d="M467.765 252.946L460.479 255.573L447.805 225.902L458.558 222.026L467.765 252.946Z" fill="#FFB8B8"/>
<path d="M471.937 260.047L448.445 268.516L448.348 268.189C447.553 265.52 447.755 262.614 448.908 260.109C450.06 257.604 452.07 255.706 454.495 254.831L454.496 254.831L468.844 249.659L471.937 260.047Z" fill="#2F2E41"/>
<path d="M452.921 247.626L431.066 207.479L412.616 164.587L396.013 202.475L389.418 251.547L366.289 251.901L366.38 251.503L401.775 96.7512L429.497 101.308L428.235 121.442L428.986 122.618C435.249 132.407 441.723 142.527 438.01 153.437L448.537 187.832L471.841 245.103L452.921 247.626Z" fill="#2F2E41"/>
<path d="M403.042 130.29C399.025 130.29 394.442 125.244 396.82 116.628L396.666 116.505L402.376 88.7431C397.393 80.9008 403.963 74.4285 404.579 73.8503L407.715 67.6384L421.554 57.9814L428.556 121.995L428.453 122.104C423.396 127.428 406.411 130.29 403.042 130.29Z" fill="#CDAC50"/>
<path d="M431.383 144.735C430.833 144.744 430.284 144.68 429.748 144.545C429.21 144.396 428.339 143.642 426.992 138.818C421.64 119.642 415.32 61.9441 419.911 56.298L420.016 56.1686L427.555 57.551C428.182 57.0422 431.47 54.5163 434.505 54.9556C435.129 55.0421 435.731 55.2685 436.273 55.6211C436.815 55.9736 437.286 56.4447 437.656 57.0052L437.708 57.08L440.109 94.6744L448.908 138.916L448.697 139.021C448.185 139.277 437.199 144.735 431.383 144.735Z" fill="#3F3D56"/>
<path d="M426.313 130.041C427.17 130.01 428.01 129.772 428.774 129.344C429.538 128.917 430.208 128.311 430.736 127.568C431.264 126.825 431.638 125.963 431.831 125.044C432.024 124.125 432.031 123.171 431.853 122.248L442.888 113.885L439.905 105.266L424.471 117.318C423.083 117.75 421.887 118.729 421.11 120.067C420.333 121.406 420.029 123.011 420.256 124.579C420.483 126.148 421.225 127.57 422.341 128.577C423.458 129.583 424.871 130.104 426.313 130.041H426.313Z" fill="#FFB8B8"/>
<path d="M439.247 120.586L429.417 112.655L443.235 91.9225L432.631 71.3331L437.375 56.4067L437.681 57.0496C437.824 57.349 451.985 87.0314 454.455 91.7882C457.025 96.7364 440.139 119.394 439.419 120.356L439.247 120.586Z" fill="#3F3D56"/>
<path d="M342.732 164.79L162.111 171.526C157.647 171.687 153.307 169.893 150.043 166.538C146.78 163.182 144.859 158.539 144.703 153.628L141.728 57.0645C141.582 52.1525 143.213 47.3771 146.262 43.7862C149.312 40.1953 153.531 38.0819 157.995 37.9099L338.616 31.1735C343.08 31.0126 347.42 32.8067 350.684 36.1622C353.947 39.5177 355.868 44.1606 356.024 49.0722L358.999 145.635C359.145 150.547 357.515 155.323 354.465 158.914C351.415 162.505 347.196 164.618 342.732 164.79Z" fill="white"/>
<path d="M358.999 145.635L359.015 146.146C359.159 150.839 357.602 155.402 354.689 158.832C351.775 162.262 347.742 164.278 343.477 164.436L161.953 171.206C157.689 171.365 153.543 169.653 150.426 166.448C147.309 163.243 145.476 158.807 145.331 154.116L145.315 153.605L358.999 145.635Z" fill="#F2F2F2"/>
<path d="M180.687 67.9768C167.679 72.031 155.561 61.3655 153.188 51.1402L154.095 50.9265C165.069 47.8249 177.679 56.0609 180.687 67.9768Z" fill="#CDAC50"/>
<path d="M309.296 137.007C306.365 137.116 304.006 136.244 302.281 134.415C298.383 130.28 298.365 122.03 298.35 115.402C298.346 113.473 298.342 111.652 298.243 110.13L298.242 110.107C298.163 107.128 299.156 104.236 301.004 102.058C302.853 99.8807 305.407 98.5936 308.113 98.4765L332.408 97.5704C335.335 97.4612 337.693 98.3319 339.416 100.159C343.314 104.29 343.334 112.537 343.351 119.164C343.356 121.097 343.36 122.922 343.461 124.447C343.543 127.43 342.552 130.328 340.702 132.51C338.853 134.693 336.295 135.983 333.585 136.101L309.296 137.007ZM299.262 110.061C299.363 111.619 299.367 113.455 299.371 115.399C299.385 121.816 299.403 129.801 302.989 133.606C304.529 135.239 306.58 135.984 309.261 135.884L333.549 134.978C335.986 134.873 338.287 133.714 339.952 131.753C341.617 129.792 342.511 127.188 342.441 124.505C342.339 122.965 342.335 121.12 342.33 119.167C342.314 112.753 342.294 104.769 338.708 100.968C337.169 99.3376 335.12 98.5934 332.443 98.6932L308.149 99.5993C305.715 99.7051 303.416 100.863 301.753 102.821C300.089 104.78 299.194 107.381 299.262 110.061Z" fill="#3F3D56"/>
<path d="M175.351 69.2101C171.091 69.3406 166.882 68.1529 163.204 65.7823C157.818 62.3723 153.657 56.7444 152.345 51.0956L152.213 50.5295L153.63 50.1956C164.768 47.052 177.731 55.3603 180.831 67.6371L180.967 68.1754L180.478 68.3279C178.808 68.8493 177.087 69.1456 175.351 69.2101ZM153.475 51.3812C154.86 56.5563 158.738 61.6584 163.713 64.8085C168.527 67.9503 174.271 68.8795 179.703 67.3948C176.503 55.9687 164.341 48.3204 153.875 51.2867L153.475 51.3812Z" fill="#3F3D56"/>
<path d="M163.162 133.538C161.627 133.658 160.091 133.316 158.72 132.548C157.348 131.781 156.192 130.617 155.376 129.181C154.43 127.47 153.9 125.52 153.838 123.518C153.776 121.516 154.183 119.53 155.021 117.752C155.762 116.229 156.872 114.961 158.228 114.09C159.583 113.218 161.132 112.777 162.702 112.814L195.072 111.607C196.635 111.457 198.205 111.785 199.61 112.554C201.014 113.324 202.198 114.505 203.031 115.967C203.976 117.679 204.505 119.629 204.567 121.631C204.628 123.632 204.22 125.617 203.382 127.395C201.858 130.501 199.13 132.232 195.703 132.323L163.332 133.53C163.275 133.533 163.218 133.536 163.162 133.538ZM162.577 113.941C161.214 113.932 159.873 114.331 158.7 115.096C157.527 115.861 156.566 116.964 155.92 118.285C155.165 119.887 154.798 121.676 154.854 123.48C154.91 125.283 155.388 127.04 156.24 128.582C156.979 129.873 158.029 130.915 159.273 131.59C160.518 132.266 161.908 132.549 163.289 132.408L195.676 131.2C197.064 131.238 198.435 130.853 199.636 130.088C200.838 129.322 201.823 128.205 202.483 126.861C203.239 125.26 203.606 123.471 203.551 121.668C203.495 119.865 203.019 118.108 202.167 116.566C201.426 115.275 200.375 114.233 199.131 113.556C197.887 112.879 196.497 112.593 195.114 112.729L162.725 113.937C162.676 113.938 162.626 113.94 162.577 113.941V113.941Z" fill="#3F3D56"/>
<path d="M316.827 111.517L306.623 111.898C305.947 111.922 305.289 111.65 304.795 111.142C304.302 110.633 304.011 109.93 303.988 109.186C303.965 108.442 304.212 107.719 304.673 107.174C305.135 106.63 305.774 106.31 306.45 106.284L316.654 105.903C317.331 105.878 317.989 106.15 318.484 106.658C318.978 107.167 319.269 107.871 319.292 108.615C319.315 109.36 319.068 110.084 318.606 110.628C318.144 111.172 317.504 111.492 316.827 111.517L316.827 111.517Z" fill="#CDAC50"/>
<path d="M317.104 120.5L306.9 120.881C306.564 120.894 306.23 120.834 305.916 120.704C305.601 120.575 305.313 120.379 305.068 120.127C304.823 119.875 304.625 119.573 304.486 119.237C304.347 118.901 304.27 118.538 304.258 118.169C304.247 117.8 304.302 117.432 304.42 117.086C304.538 116.741 304.716 116.424 304.946 116.154C305.175 115.885 305.45 115.668 305.756 115.515C306.061 115.363 306.391 115.278 306.727 115.266L316.931 114.886C317.267 114.873 317.601 114.933 317.915 115.062C318.23 115.191 318.518 115.387 318.763 115.639C319.008 115.891 319.206 116.194 319.345 116.53C319.484 116.866 319.561 117.229 319.573 117.598C319.584 117.967 319.529 118.334 319.411 118.68C319.293 119.026 319.115 119.342 318.885 119.612C318.656 119.881 318.381 120.099 318.075 120.251C317.769 120.403 317.44 120.488 317.104 120.5Z" fill="#CDAC50"/>
<path d="M317.381 129.483L307.176 129.863C306.5 129.888 305.842 129.617 305.347 129.108C304.852 128.6 304.562 127.896 304.539 127.151C304.516 126.407 304.762 125.683 305.225 125.139C305.687 124.594 306.327 124.274 307.003 124.249L317.208 123.869C317.543 123.856 317.877 123.916 318.191 124.046C318.505 124.175 318.792 124.372 319.037 124.623C319.282 124.875 319.479 125.178 319.618 125.514C319.757 125.849 319.834 126.212 319.845 126.58C319.857 126.949 319.802 127.317 319.684 127.662C319.567 128.007 319.388 128.324 319.159 128.593C318.93 128.863 318.656 129.08 318.35 129.233C318.045 129.385 317.716 129.47 317.381 129.483Z" fill="#CDAC50"/>
<path d="M334.685 110.851L324.481 111.232C324.145 111.245 323.811 111.185 323.497 111.056C323.182 110.927 322.894 110.73 322.649 110.479C322.404 110.227 322.206 109.924 322.067 109.588C321.928 109.252 321.851 108.889 321.839 108.52C321.828 108.151 321.883 107.783 322.001 107.438C322.119 107.092 322.297 106.775 322.527 106.506C322.756 106.236 323.031 106.019 323.337 105.867C323.642 105.714 323.972 105.63 324.308 105.618L334.512 105.237C334.847 105.225 335.181 105.285 335.495 105.414C335.809 105.544 336.097 105.74 336.342 105.992C336.586 106.244 336.784 106.546 336.923 106.882C337.061 107.218 337.139 107.58 337.15 107.949C337.161 108.318 337.107 108.685 336.989 109.031C336.871 109.376 336.693 109.692 336.464 109.962C336.235 110.231 335.96 110.449 335.655 110.601C335.35 110.754 335.02 110.839 334.685 110.851Z" fill="#CDAC50"/>
<path d="M334.962 119.834L324.757 120.214C324.081 120.24 323.423 119.968 322.928 119.46C322.433 118.951 322.143 118.247 322.12 117.503C322.097 116.758 322.343 116.034 322.806 115.49C323.268 114.946 323.908 114.626 324.584 114.6L334.789 114.22C335.124 114.207 335.459 114.267 335.773 114.396C336.087 114.525 336.375 114.721 336.62 114.973C336.866 115.225 337.064 115.528 337.203 115.864C337.341 116.2 337.419 116.563 337.43 116.932C337.442 117.301 337.387 117.668 337.269 118.014C337.151 118.36 336.972 118.676 336.743 118.946C336.514 119.215 336.238 119.433 335.933 119.585C335.627 119.737 335.297 119.822 334.962 119.834V119.834Z" fill="#CDAC50"/>
<path d="M335.239 128.817L325.034 129.197C324.699 129.21 324.365 129.15 324.05 129.021C323.736 128.892 323.448 128.696 323.203 128.444C322.957 128.192 322.76 127.889 322.621 127.553C322.482 127.217 322.404 126.854 322.393 126.485C322.382 126.117 322.437 125.749 322.554 125.403C322.672 125.057 322.851 124.741 323.08 124.471C323.31 124.202 323.585 123.984 323.891 123.832C324.196 123.68 324.526 123.595 324.861 123.583L335.066 123.203C335.401 123.19 335.735 123.25 336.049 123.38C336.363 123.509 336.65 123.706 336.895 123.957C337.14 124.209 337.338 124.512 337.476 124.847C337.615 125.183 337.692 125.546 337.704 125.914C337.715 126.283 337.66 126.651 337.542 126.996C337.425 127.341 337.246 127.658 337.017 127.927C336.789 128.197 336.514 128.414 336.209 128.567C335.903 128.719 335.574 128.804 335.239 128.817Z" fill="#CDAC50"/>
<path d="M356.673 70.0926L142.989 78.0623L143.024 79.1851L356.708 71.2155L356.673 70.0926Z" fill="#3F3D56"/>
<path d="M342.732 164.79L162.111 171.526C157.647 171.687 153.307 169.893 150.043 166.538C146.78 163.182 144.859 158.539 144.703 153.628L141.728 57.0645C141.582 52.1525 143.213 47.3771 146.262 43.7862C149.312 40.1953 153.531 38.0819 157.995 37.9099L338.616 31.1735C343.08 31.0126 347.42 32.8067 350.684 36.1622C353.947 39.5177 355.868 44.1606 356.024 49.0722L358.999 145.635C359.145 150.547 357.515 155.323 354.465 158.914C351.415 162.505 347.196 164.618 342.732 164.79ZM158.03 39.0327C153.836 39.1943 149.873 41.1795 147.008 44.5529C144.143 47.9262 142.611 52.4121 142.749 57.0264L145.723 153.59C145.87 158.204 147.675 162.565 150.74 165.717C153.806 168.869 157.883 170.555 162.077 170.403L342.697 163.667C346.891 163.506 350.855 161.52 353.719 158.147C356.584 154.774 358.116 150.288 357.978 145.673L355.004 49.1103C354.857 44.4963 353.053 40.1348 349.987 36.9827C346.921 33.8305 342.844 32.1452 338.651 32.2963L158.03 39.0327Z" fill="#3F3D56"/>
<path d="M83.9428 140.898C83.9002 139.91 83.6614 138.945 83.2431 138.07C82.8248 137.195 82.2372 136.431 81.5217 135.833C80.8062 135.235 79.9802 134.816 79.1018 134.607C78.2235 134.398 77.3142 134.404 76.438 134.623L68.3091 122.018L60.1426 125.585L71.8494 143.209C72.2821 144.804 73.2316 146.169 74.518 147.046C75.8044 147.922 77.3382 148.249 78.8289 147.964C80.3196 147.679 81.6635 146.802 82.606 145.5C83.5485 144.198 84.0242 142.56 83.9428 140.898H83.9428Z" fill="#A0616A"/>
<path d="M68.0996 139.964L43.5029 104.853L52.7191 72.9829C53.3945 64.9702 57.9513 62.7327 58.1453 62.6413L58.441 62.5017L66.4608 86.0338L60.5724 103.311L75.0253 130.058L68.0996 139.964Z" fill="#3F3D56"/>
<path d="M153.52 31.7303C152.628 31.8534 151.772 32.19 151.011 32.7165C150.251 33.2431 149.604 33.9467 149.118 34.7779C148.631 35.6091 148.316 36.5476 148.194 37.5274C148.073 38.5071 148.148 39.5042 148.415 40.4484L137.622 50.3406L141.485 59.0237L156.549 44.8185C157.961 44.2204 159.124 43.0732 159.819 41.5943C160.514 40.1154 160.691 38.4074 160.318 36.7941C159.944 35.1809 159.046 33.7743 157.793 32.841C156.54 31.9077 155.02 31.5125 153.52 31.7303H153.52Z" fill="#A0616A"/>
<path d="M153.898 49.1828L123.986 78.8806L94.3955 71.2343C87.0829 71.1129 84.7033 66.2869 84.6054 66.0813L84.4561 65.7676L105.159 55.1503L121.269 60.2742L144.387 42.3511L153.898 49.1828Z" fill="#3F3D56"/>
<path d="M102.086 260.304H110.123L113.946 226.195L102.084 226.196L102.086 260.304Z" fill="#A0616A"/>
<path d="M125.623 268.514L100.364 268.516L100.364 257.778L116.971 257.777C119.265 257.777 121.466 258.78 123.088 260.565C124.711 262.35 125.622 264.771 125.623 267.296L125.623 268.514Z" fill="#2F2E41"/>
<path d="M69.9652 260.304H78.002L81.8249 226.195L69.9634 226.196L69.9652 260.304Z" fill="#A0616A"/>
<path d="M93.5015 268.514L68.2431 268.516L68.2427 257.778L84.8496 257.777C85.9857 257.777 87.1107 258.023 88.1604 258.501C89.21 258.98 90.1638 259.681 90.9672 260.565C91.7706 261.449 92.4079 262.498 92.8427 263.653C93.2775 264.808 93.5014 266.046 93.5014 267.296L93.5015 268.514Z" fill="#2F2E41"/>
<path d="M67.1064 135.804L67.7621 186.295L68.4171 252.655L82.8393 251.212L90.0501 159.607L99.2278 251.212H114.117L115.616 158.885L110.372 138.689L67.1064 135.804Z" fill="#2F2E41"/>
<path d="M95.3334 142.584C79.6415 142.585 65.1973 134.771 65.0023 134.663L64.8404 134.574L63.5235 99.8014C63.1417 98.5727 55.6224 74.326 54.3489 66.6192C53.0586 58.8112 71.7588 51.9586 74.0297 51.1572L74.545 44.876L95.5009 42.3914L98.1569 50.4285L105.675 53.5303C106.527 53.8823 107.233 54.566 107.657 55.4519C108.082 56.3378 108.197 57.3645 107.98 58.3372L103.801 77.0341L114.006 138.892L111.809 138.997C106.611 141.465 100.994 142.688 95.3334 142.584Z" fill="#3F3D56"/>
<path d="M85.8442 38.4139C94.1773 38.4139 100.933 30.981 100.933 21.812C100.933 12.6429 94.1773 5.20996 85.8442 5.20996C77.5111 5.20996 70.7559 12.6429 70.7559 21.812C70.7559 30.981 77.5111 38.4139 85.8442 38.4139Z" fill="#A0616A"/>
<path d="M73.6228 37.8832C76.4983 41.2534 81.8385 39.4442 82.2132 34.8399C82.2425 34.4825 82.2404 34.1227 82.2068 33.7657C82.0133 31.7262 80.9425 29.8746 81.199 27.7212C81.2571 27.1852 81.4385 26.6745 81.7262 26.2373C84.0176 22.8611 89.3965 27.7474 91.559 24.691C92.885 22.8169 91.3263 19.8663 92.3439 17.7716C93.6869 15.0071 97.6649 16.3709 100.159 14.8569C102.935 13.1723 102.769 8.48663 100.942 5.63655C98.7138 2.16075 94.8071 0.30607 90.949 0.038778C87.091 -0.228514 83.2596 0.919022 79.6577 2.46351C75.5653 4.21835 71.5071 6.64358 68.9887 10.603C65.9261 15.4181 65.6314 21.8916 67.163 27.522C68.0948 30.947 71.2747 35.131 73.6228 37.8832Z" fill="#2F2E41"/>
<path d="M499.387 269.417H0.612745C0.450235 269.417 0.29438 269.346 0.179468 269.22C0.0645564 269.093 0 268.922 0 268.743C0 268.564 0.0645564 268.393 0.179468 268.266C0.29438 268.14 0.450235 268.069 0.612745 268.069H499.387C499.55 268.069 499.706 268.14 499.821 268.266C499.935 268.393 500 268.564 500 268.743C500 268.922 499.935 269.093 499.821 269.22C499.706 269.346 499.55 269.417 499.387 269.417Z" fill="#CACACA"/>
<path d="M278.141 362.279L285.38 362.279L288.823 331.556L278.14 331.557L278.141 362.279Z" fill="#FFB8B8"/>
<path d="M276.294 359.678L290.55 359.678H290.551C292.96 359.678 295.271 360.731 296.975 362.606C298.679 364.48 299.636 367.023 299.636 369.674V369.999L276.295 370L276.294 359.678Z" fill="#2F2E41"/>
<path d="M210.829 362.279L218.068 362.279L221.511 331.556L210.828 331.557L210.829 362.279Z" fill="#FFB8B8"/>
<path d="M208.982 359.678L223.238 359.678H223.239C225.648 359.678 227.959 360.731 229.663 362.606C231.367 364.48 232.324 367.023 232.324 369.674V369.999L208.983 370L208.982 359.678Z" fill="#2F2E41"/>
<path d="M281.026 206.369C281.026 206.369 287.102 224.516 286.234 232.157C285.366 239.798 292.31 293.283 291.442 298.059C290.574 302.834 292.31 326.712 291.442 330.532C290.574 334.353 293.879 338.916 292.143 342.736C290.407 346.557 287.97 354.41 287.97 354.41L276.686 353.455L274.95 342.949C274.95 342.949 269.742 341.993 270.61 336.263C271.478 330.532 266.27 292.328 266.27 292.328L251.513 238.843L230.681 287.553C230.681 287.553 229.813 321.936 227.209 325.757C224.605 329.577 229.813 340.083 227.209 343.904C224.605 347.724 222.001 354.41 222.001 354.41H208.98V346.769C208.98 346.769 201.168 341.993 208.98 327.667L214.259 241.63L219.467 202.471L281.026 206.369Z" fill="#2F2E41"/>
<path d="M248.668 86.2747C257.622 86.2747 264.881 78.288 264.881 68.4358C264.881 58.5837 257.622 50.5969 248.668 50.5969C239.714 50.5969 232.456 58.5837 232.456 68.4358C232.456 78.288 239.714 86.2747 248.668 86.2747Z" fill="#FFB8B8"/>
<path d="M262.464 67.2052C261.32 70.4213 260.176 73.6373 259.032 76.8534C257.626 80.8071 256.015 85.0371 252.719 87.2436C248.648 89.9679 243.213 88.6395 239.275 85.6884C235.734 83.0342 233.016 79.2511 231.485 74.8473C229.955 70.4435 229.686 65.6298 230.715 61.053C231.744 56.4761 234.021 52.3553 237.24 49.2439C240.459 46.1325 244.467 44.1795 248.724 43.6474L248.887 46.8767L252.489 43.5552C252.755 44.058 253.121 44.488 253.56 44.8127C253.999 45.1374 254.5 45.3484 255.023 45.4299C255.547 45.5114 256.081 45.4612 256.584 45.2832C257.088 45.1052 257.548 44.8039 257.931 44.4021C256.985 46.5598 258.077 49.1913 259.654 50.8442C261.591 52.8747 267.131 55.3151 266.901 58.9449C266.748 61.3673 263.357 64.6949 262.464 67.2052Z" fill="#2F2E41"/>
<path d="M204.041 232.757C203.482 231.84 203.113 230.799 202.959 229.708C202.806 228.617 202.871 227.502 203.152 226.441C203.432 225.381 203.921 224.401 204.582 223.571C205.244 222.741 206.063 222.081 206.982 221.637L206.658 204.379L216.141 201.605L216.288 225.983C216.863 227.73 216.836 229.65 216.212 231.377C215.587 233.105 214.409 234.52 212.899 235.355C211.389 236.19 209.654 236.387 208.021 235.908C206.389 235.43 204.972 234.308 204.041 232.757Z" fill="#FFB8B8"/>
<path d="M236.625 97.3C236.625 97.3 249.188 90.3882 261.053 94.9961C272.919 99.604 279.201 104.98 279.201 104.98L271.523 149.523L281.992 209.426C281.992 209.426 228.249 204.818 223.363 209.426C218.478 214.034 218.478 204.05 218.478 204.05L222.665 147.219L214.988 111.124L236.625 97.3Z" fill="#3F3D56"/>
<path d="M289.65 233.779C288.88 233.071 288.26 232.186 287.834 231.186C287.409 230.186 287.187 229.096 287.186 227.992C287.184 226.887 287.403 225.796 287.827 224.795C288.25 223.794 288.868 222.907 289.636 222.197L284.922 205.734L293.316 200.142L299.676 223.493C300.675 224.993 301.139 226.844 300.98 228.695C300.821 230.546 300.051 232.268 298.815 233.536C297.58 234.804 295.964 235.529 294.275 235.574C292.586 235.618 290.94 234.98 289.65 233.779Z" fill="#FFB8B8"/>
<path d="M274.315 104.98H279.201C279.201 104.98 286.878 110.356 286.878 118.035C286.878 125.715 298.046 215.57 298.046 215.57L286.18 217.874L275.711 154.899L268.033 138.003L274.315 104.98Z" fill="#3F3D56"/>
<path d="M228.249 111.124H214.988C214.988 111.124 210.8 115.732 208.706 126.483C206.612 137.235 204.518 179.474 204.518 179.474L205.914 217.874H216.383L217.779 167.955L224.759 135.699L228.249 111.124Z" fill="#3F3D56"/>
</svg>
